<svg xmlns="http://www.w3.org/2000/svg" viewBox="0 0 312.44 89.86"><defs><style>.cls-1{fill:#fff;}.cls-2{fill:#ffa33c;}</style></defs><title>logo_1</title><g id="Layer_2" data-name="Layer 2"><g id="logo"><path class="cls-1" d="M311.29,30.38a37.9,37.9,0,0,0-10.89-17.5A48.49,48.49,0,0,0,282.65,2.79,61.85,61.85,0,0,0,262.9,0a68.11,68.11,0,0,0-9.84,1,75,75,0,0,0-9.55,2.4A67.1,67.1,0,0,0,226,12.23a58.58,58.58,0,0,0-13.93,14A45.87,45.87,0,0,0,207.2,35c-.5,1.16-.92,2.34-1.31,3.52V34.72h-5.28V25.2l-16.24,5.21v4.31H173.51l-.27.78a12,12,0,0,0-5.51-1.28c-6.31,0-12.66,3.09-15.35,9.81C151,38.27,145.82,33.1,134.74,33.1a25.43,25.43,0,0,0-12,3.42v-1.8h-5.29V25.2l-16.24,5.21v4.31h-3v5.35C95.78,35,91.06,33.72,86.9,33.72a11.8,11.8,0,0,0-6.75,2.08l-.4-1.08H62.81v5.61c-3.25-3.88-8.3-6.2-14.47-6.28a19,19,0,0,0-14.19,6.29V34.72H22.47l-.28.78a12,12,0,0,0-5.5-1.28C8.38,34.22,0,39.55,0,51.46c0,8.89,5.66,17.86,18.3,17.86a22.09,22.09,0,0,0,15.64-6.44,12.13,12.13,0,0,0,.89,1,19.4,19.4,0,0,0,13.79,5.37A18.69,18.69,0,0,0,62.12,64c.24-.25.46-.51.69-.77v5.27h39.77V64c1.39,3.19,4.28,5.56,10.46,5.56a28.55,28.55,0,0,0,7.85-1.27l1.89-.76v-1a14.77,14.77,0,0,0,9.62,3.06,13.33,13.33,0,0,0,6.65-1.81l.4.76h16.71V64.43c3,2.95,7.33,4.89,13.19,4.89a22,22,0,0,0,15.83-6.65l0,0c1.14,3.85,3.92,6.9,10.94,6.9A28.61,28.61,0,0,0,204,68.27l1.88-.76V63.17c.24.68.5,1.36.78,2a37,37,0,0,0,12.58,15.51,47.47,47.47,0,0,0,17.34,7.64,56.76,56.76,0,0,0,12.16,1.49h.86a3,3,0,0,0,2.91-2.31l.19-.78c.07-.3.15-.6.24-.89l.36-1.22a3,3,0,0,0-.42-2.59,3,3,0,0,0-2.29-1.27l-1.28-.06a47.39,47.39,0,0,1-10.27-1.65,35.56,35.56,0,0,1-13.2-6.66,25.55,25.55,0,0,1-8.06-11.32,24.78,24.78,0,0,1-.64-13.69,33.72,33.72,0,0,1,6.29-13,46.69,46.69,0,0,1,11-10.27,57,57,0,0,1,13.86-6.75,57.85,57.85,0,0,1,15.22-2.89,48.54,48.54,0,0,1,15.21,1.59,35.54,35.54,0,0,1,13.19,6.57A25.55,25.55,0,0,1,300,34c0,.08.06.16.08.23a12.51,12.51,0,0,0-4.3-.68h-.11c-6.86,0-14.28,4.25-18.88,10.27,0-.15,0-.29,0-.44a8.85,8.85,0,0,0-1.76-4.78l-.25-.4c-.63-1.21-2-3.72-4.8-3.72-2.09,0-4,1.43-5.86,2.88l-3.07,2.41a6.77,6.77,0,0,0-6.84-5.94c-2.52,0-6.13,1.85-10.78,5.5-.81-1.3-2.46-2.5-5.69-2.84l-.28,0c-2.48-.32-5.21.73-7.91,3.07-4.25,3.68-8.58,10.7-8.65,17,0,8.38,4.39,12.2,8.47,12.2,3.24,0,5.29-2.41,6.2-3.49l.95-1.15A7.14,7.14,0,0,0,243.39,69c3.76,0,6.79-3,8.79-5l.38-.38A7.77,7.77,0,0,0,260,70c3,0,7.06-2,13.68-6.93A11.16,11.16,0,0,0,284.14,70c7,0,16.37-6.61,17.91-7.91a35.17,35.17,0,0,0,8.12-10.65C312.69,46.38,313.18,37.14,311.29,30.38ZM20.35,55.14c-2.64,0-2.78-3-2.78-3.57,0-1.64.55-3.94,1.75-4.11a6.39,6.39,0,0,1,.66,3l.12,2.87h4.39A5.1,5.1,0,0,1,20.35,55.14Zm9.2-1.85h.61c0,.28.06.54.1.81Zm53,2h-.62v-4.9a4.88,4.88,0,0,1,.35-2.16.41.41,0,0,1,.16,0h0a10.39,10.39,0,0,1,.11,1.9Zm17.41,0V49c0-.35,0-.68,0-1h1.3v7c0,.1,0,.21,0,.32Zm18.59.36a10.71,10.71,0,0,1-1.09.39c0-.11,0-.21,0-.3,0-.29,0-.57,0-.84V48h4.79l.06.16A12.61,12.61,0,0,0,118.56,55.61Zm52.84-.47c-2.65,0-2.78-3-2.78-3.57,0-1.64.54-3.94,1.75-4.11a6.44,6.44,0,0,1,.65,3l.12,2.87h4.4A5.11,5.11,0,0,1,171.4,55.14Zm9.2-1.85h3.77v1.64c0,.92,0,1.89.1,2.85Zm21.13,2.31c-.35.14-.76.28-1.14.4v-.3c0-.29,0-.57,0-.84V48H204a37.25,37.25,0,0,0,.06,6.68Z"/><path id="me" class="cls-2" d="M308.4,31.18a34.72,34.72,0,0,0-10-16.08,45.39,45.39,0,0,0-16.62-9.44A59.16,59.16,0,0,0,263,3a66.44,66.44,0,0,0-9.4,1,71,71,0,0,0-9.11,2.29,64.38,64.38,0,0,0-16.71,8.42,55.45,55.45,0,0,0-13.22,13.25A42.81,42.81,0,0,0,210,36.2a41.35,41.35,0,0,0-2.68,9.11,33.18,33.18,0,0,0,13.75,33,44.47,44.47,0,0,0,16.26,7.15,54,54,0,0,0,11.51,1.4l.81,0,.18-.79c.09-.35.18-.7.28-1l.37-1.22-1.27-.07A49.62,49.62,0,0,1,238.24,82,38.62,38.62,0,0,1,224,74.75a28.56,28.56,0,0,1-9-12.65,27.69,27.69,0,0,1-.73-15.34,36.68,36.68,0,0,1,6.83-14.12,49.81,49.81,0,0,1,11.71-10.93,60.14,60.14,0,0,1,14.6-7.11,60.83,60.83,0,0,1,16-3,51.56,51.56,0,0,1,16.15,1.7,38.51,38.51,0,0,1,14.28,7.13,28.53,28.53,0,0,1,9,12.59c1.66,4.7,2.34,8.41.9,13.5-.85,3-3.89,6.79-7.07,8.8-1.36.86-6.16,3.35-8.74,3.35a4.14,4.14,0,0,1-3-1,2,2,0,0,1-.47-1.63l.08-.93C299.71,50,302,44.09,302,41c0-1.34-.61-4.45-6.18-4.45h-.11c-7.83,0-16.65,6.57-19.48,14.47-7.77,5.28-8.82,5.53-10,5.81l-.18,0a1,1,0,0,1-.52-.78c.06-1.32.35-2.29,5.86-8.37,1.21-1.32,2.5-2.85,2.5-4.35a6.15,6.15,0,0,0-1.27-3.13l-.22-.33-.17-.32c-.5-.95-1.12-2.12-2.15-2.12s-2.33.9-4,2.23l-11.38,9c1.85-2.66,3.56-5.44,3.56-7.53,0-2.58-1.59-4.32-3.95-4.32-4.95,0-16.73,11.64-21.12,16.15l.44-.54c.21-.26.42-.51.62-.79a18.28,18.28,0,0,1,2.26-2.56c.54-.56,1.11-1.13,1.64-1.75l.27-.31c1.44-1.66,2.85-3.4,2.85-4.95,0-2.22-2.48-2.47-3.68-2.6l-.43,0c-1.59-.22-3.52.6-5.55,2.36-3.64,3.16-7.55,9.4-7.61,14.76,0,2.56,1,9.2,5.47,9.2,1.85,0,3.16-1.54,3.87-2.38,3.4-4.19,7.52-8.6,11.09-12.38l0,0c-4,6.17-5.25,9-5.18,11.09a4.1,4.1,0,0,0,4.17,4c2.53,0,4.92-2.38,6.68-4.12l.69-.68,6.86-6.3c-1.25,2.32-2.27,4.76-2.27,6.86,0,2.49,1.78,5.18,4.67,5.18,3.29,0,9.72-4.57,15.38-9,.58,4.68,3.38,9,8.74,9,5.65,0,14.09-5.62,16-7.21a32.09,32.09,0,0,0,7.37-9.69C309.68,45.69,310.09,37.21,308.4,31.18ZM293.52,42.82c-.63,1.21-3.36,4.09-7.32,6A14.78,14.78,0,0,1,293.52,42.82Z"/><path id="contact" class="cls-2" d="M23,50.29c-.11-2.67-.94-5.84-3.5-5.84-3.28,0-4.9,3.51-4.9,7.12s2.17,6.51,5.73,6.57A8.38,8.38,0,0,0,27,55l4.89,5.67A19,19,0,0,1,18.3,66.32C10.12,66.32,3,61.37,3,51.46S9.57,37.22,16.69,37.22a9,9,0,0,1,7,3.17l.95-2.67h6.56V50.29ZM33.1,51.52c0-9.29,7.57-14.47,15.24-14.47,8.79.11,15.3,5.4,15.47,14.69S57.08,66.26,48.62,66.26C40.67,66.26,33,61.37,33.1,51.52Zm19.31.22c0-4.17-1.45-7.4-4.07-7.46-2.17,0-3.84,3.23-3.84,7.29,0,4.57,1.78,7.57,4.12,7.57S52.41,55.91,52.41,51.74Zm13.4,13.8V58.25h2.34V45H65.81V37.72H77.66l1.28,3.45c1.89-2.62,4.45-4.45,8-4.45C95.52,36.72,97,43.12,97,49v9.29h2.61v7.29h-14V50.35c0-1.89.17-5.18-3.11-5.18-2.84,0-3.51,2.79-3.51,5.18v7.9h4v7.29Zm38.44-27.82V32.6l10.24-3.28v8.4h5.29V45h-5.29v9.91c0,1.89-.39,4.45,1.78,4.45a12.62,12.62,0,0,0,3.51-1v7.12A25.85,25.85,0,0,1,113,66.54c-8.34,0-8.62-4.56-8.79-11.68V45h-3V37.72Zm18.36,2.34c2.23-1.34,7-4,12.13-4,6.68,0,15.08,2.51,15.08,11.47V58.42h3.34v7.12H141.25L139.92,63a9.45,9.45,0,0,1-7.52,3.57c-5.28,0-11-2.84-11-9.3,0-6.28,5.29-10.23,11.58-10.23A8,8,0,0,1,138.53,49V47.07c0-2.51-2.29-3.12-5.29-3.12A17.35,17.35,0,0,0,125,46.51Zm15.92,15.35a3.49,3.49,0,0,0-3.29-1.61c-2.22,0-3.22,1.22-3.22,3A2.7,2.7,0,0,0,135,59.36a4.41,4.41,0,0,0,3.57-1.83ZM174,50.29c-.11-2.67-1-5.84-3.51-5.84-3.28,0-4.89,3.51-4.89,7.12s2.17,6.51,5.73,6.57A8.35,8.35,0,0,0,178.08,55l4.9,5.67a19.07,19.07,0,0,1-13.63,5.68c-8.18,0-15.3-4.95-15.3-14.86s6.56-14.24,13.68-14.24a9,9,0,0,1,7,3.17l.94-2.67h6.57V50.29Zm13.35-12.57V32.6l10.24-3.28v8.4h5.28V45h-5.28v9.91c0,1.89-.39,4.45,1.78,4.45a12.57,12.57,0,0,0,3.5-1v7.12a25.78,25.78,0,0,1-6.73,1.06c-8.34,0-8.62-4.56-8.79-11.68V45h-3V37.72Z"/></g></g></svg>